<svg xmlns="http://www.w3.org/2000/svg" width="160" height="44" fill="none" viewBox="0 0 160 44" role="img" aria-label="АТЕХ">
  <title>АТЕХ</title>
  <g clip-path="url(#a)">
    <path fill="#ffffff" d="M79.93 0 45.137.02v8.407h12.425L57.582 44l9.803-.01-.01-35.563 12.565-.01L79.93 0ZM0 44l20.015-.01L9.342 24.75 0 44ZM21.367 0l-6.208 12.786L20.896 9.6 39.98 44h9.933l-24.4-44h-4.146Zm76.615 35.513-.01-10.04 14.699-.01v-7.807H97.972V8.427l16.701-.01-.01-8.417L88.16.01 88.18 44l26.503-.01v-8.487l-16.7.01ZM160 0h-10.073l-3.474 5.632 5.046 8.196L160 0Zm-37.146 0 13.526 22.015L122.854 44h10.092l8.481-13.788L149.897 44h10.073L132.926 0h-10.072Z"/>
  </g>
  <defs>
    <clipPath id="a"><path fill="#fff" d="M0 0h160v44H0z"/></clipPath>
  </defs>
</svg>
